HIERARCHY
ROOT Hips
{
	OFFSET -0.179506 -22.333345 2.821913
	CHANNELS 6 Xposition Yposition Zposition Zrotation Yrotation Xrotation 
	JOINT LeftUpLeg
	{
		OFFSET 6.951974 -9.140623 -0.681533
		CHANNELS 3 Zrotation Yrotation Xrotation
		JOINT LeftLeg
		{
			OFFSET 3.427654 -37.519855 -0.449580
			CHANNELS 3 Zrotation Yrotation Xrotation
			JOINT LeftFoot
			{
				OFFSET -1.359570 -39.796059 -4.369333
				CHANNELS 3 Zrotation Yrotation Xrotation
				JOINT LeftToe
				{
					OFFSET 2.635814 -5.579078 11.928840
					CHANNELS 3 Zrotation Yrotation Xrotation
					End Site
					{
						OFFSET 0.000000 0.000000 0.000000
					}
				}
			}
		}
	}
	JOINT RightUpLeg
	{
		OFFSET -6.767048 -9.052170 -0.431982
		CHANNELS 3 Zrotation Yrotation Xrotation
		JOINT RightLeg
		{
			OFFSET -3.829005 -38.256897 -0.885003
			CHANNELS 3 Zrotation Yrotation Xrotation
			JOINT RightFoot
			{
				OFFSET 1.577377 -39.841461 -4.231180
				CHANNELS 3 Zrotation Yrotation Xrotation
				JOINT RightToe
				{
					OFFSET -2.537174 -4.814398 12.334795
					CHANNELS 3 Zrotation Yrotation Xrotation
					End Site
					{
						OFFSET 0.000000 0.000000 0.000000
					}
				}
			}
		}
	}
	JOINT Spine
	{
		OFFSET -0.253288 10.896323 -2.669631
		CHANNELS 3 Zrotation Yrotation Xrotation
		JOINT Spine1
		{
			OFFSET 0.548704 13.518043 0.109247
			CHANNELS 3 Zrotation Yrotation Xrotation
			JOINT Spine2
			{
				OFFSET 0.145701 5.292222 2.542457
				CHANNELS 3 Zrotation Yrotation Xrotation
				JOINT Neck
				{
					OFFSET -0.277840 21.387037 -4.285703
					CHANNELS 3 Zrotation Yrotation Xrotation
					JOINT Head
					{
						OFFSET 0.515184 6.496960 5.134897
						CHANNELS 3 Zrotation Yrotation Xrotation
						End Site
						{
							OFFSET 0.000000 0.000000 0.000000
						}
					}
				}
				JOINT LeftShoulder
				{
					OFFSET 7.884473 12.174932 -3.408961
					CHANNELS 3 Zrotation Yrotation Xrotation
					JOINT LeftArm
					{
						OFFSET 9.097692 3.046888 -0.886815
						CHANNELS 3 Zrotation Yrotation Xrotation
						JOINT LeftForeArm
						{
							OFFSET 25.961220 -1.277207 -2.745643
							CHANNELS 3 Zrotation Yrotation Xrotation
							JOINT LeftHand
							{
								OFFSET 24.923361 0.898606 -0.117091
								CHANNELS 3 Zrotation Yrotation Xrotation
								End Site
								{
									OFFSET 0.000000 0.000000 0.000000
								}
							}
						}
					}
				}
				JOINT RightShoulder
				{
					OFFSET -8.175920 11.883285 -3.861528
					CHANNELS 3 Zrotation Yrotation Xrotation
					JOINT RightArm
					{
						OFFSET -9.601238 3.255117 -0.914307
						CHANNELS 3 Zrotation Yrotation Xrotation
						JOINT RightForeArm
						{
							OFFSET -25.374195 -1.332924 -2.140099
							CHANNELS 3 Zrotation Yrotation Xrotation
							JOINT RightHand
							{
								OFFSET -25.529810 0.777228 -0.555919
								CHANNELS 3 Zrotation Yrotation Xrotation
								End Site
								{
									OFFSET 0.000000 0.000000 0.000000
								}
							}
						}
					}
				}
			}
		}
	}
}
MOTION
Frames: 9
Frame Time: 0.033333
-28.680368 8.654950 85.702553 -101.238484 2.304767 70.353137 20.286393 2.061540 7.826672 -11.509614 -13.808546 37.882829 0.554564 11.492308 -36.485371 nan nan nan -21.707247 -11.919236 9.714206 1.512509 -7.866597 37.350076 1.077435 -10.145053 -29.331391 nan nan nan -6.290550 1.411286 -13.010522 7.599355 -7.776028 19.996182 0.135786 0.440129 -19.137206 3.493487 -40.285620 12.293551 1.520143 -25.158552 17.249982 -25.511398 -10.816249 14.277320 -61.355645 -45.216918 32.814005 171.557546 -69.036325 -151.088685 -8.816614 -24.443450 -5.807288 12.997164 1.654393 3.807787 29.087666 0.914015 -11.400240 -63.953888 42.630330 -43.484219 5.570261 10.794425 -4.965790 
-28.653605 8.681878 85.803604 -101.328048 2.296157 70.537816 20.317845 2.183886 7.831923 -11.421426 -13.814296 37.500128 0.525024 11.422751 -36.250025 nan nan nan -21.653373 -11.970673 9.627118 1.599440 -7.830474 37.033717 1.082397 -10.057515 -29.168060 nan nan nan -6.265846 1.409155 -12.826424 7.633387 -7.774607 19.896322 0.140535 0.441535 -19.004927 3.666764 -40.168383 11.967276 1.434247 -25.166258 17.561260 -25.453000 -10.847258 14.219334 -61.418639 -45.455336 32.994374 171.437678 -69.229834 -151.003022 -8.549436 -24.370685 -5.913606 13.135368 1.515429 3.684271 28.992004 0.999853 -11.332475 -64.319000 42.743950 -43.756254 4.867456 10.715303 -4.854766 
-28.619585 8.682892 85.898048 -101.310352 2.310269 70.745250 20.343397 2.299006 7.696380 -11.383712 -13.875611 37.259800 0.488192 11.286768 -36.042659 nan nan nan -21.633596 -12.076217 9.545789 1.691535 -7.892216 36.728801 1.084297 -9.973007 -28.968700 nan nan nan -6.222675 1.406120 -12.611285 7.673101 -7.821697 19.816175 0.164496 0.323388 -18.874514 3.705459 -40.085672 11.745512 1.428657 -25.206768 17.654886 -25.407831 -10.843619 14.124762 -61.439675 -45.727798 33.095003 171.392083 -69.358185 -150.906694 -8.486460 -24.199593 -5.813041 13.204027 1.407312 3.583768 28.954611 1.206277 -11.366798 -64.719470 42.829778 -44.066956 4.418994 10.595560 -4.821428 
-28.580143 8.666736 85.994400 -101.302194 2.315881 70.954205 20.360938 2.387074 7.565234 -11.327270 -13.856173 36.973488 0.470028 11.045412 -35.788169 nan nan nan -21.633059 -12.182732 9.466882 1.773198 -8.003616 36.435538 1.073743 -9.866879 -28.804712 nan nan nan -6.195768 1.388101 -12.326399 7.722565 -7.868730 19.769145 0.208683 0.204234 -18.810434 3.867683 -39.951761 11.364977 1.272862 -25.286991 17.897249 -25.268260 -10.774787 13.956878 -61.805255 -45.975103 33.415837 171.068832 -69.537680 -150.402927 -8.727405 -24.105561 -5.695529 13.306393 1.304715 3.518356 28.920826 1.492607 -11.384672 -65.296704 42.785729 -44.688791 4.503919 10.472067 -4.966056 
-28.528975 8.643397 86.096550 -101.348463 2.301902 71.154519 20.383505 2.447411 7.518200 -11.199563 -13.677470 36.556167 0.483053 10.722690 -35.482457 nan nan nan -21.570360 -12.253988 9.331446 1.789788 -8.059002 36.172446 1.124011 -9.764719 -28.601928 nan nan nan -6.264903 1.323335 -11.935781 7.831286 -7.913141 19.584319 0.320876 0.137770 -18.656468 4.059116 -39.693703 10.906702 1.120010 -25.319034 18.321868 -25.045860 -10.649075 13.713813 -62.396212 -46.193785 33.894006 170.553685 -69.701276 -149.859322 -9.225291 -24.061498 -5.699062 13.428707 1.110238 3.381442 28.811041 1.920527 -11.303801 -65.809858 42.823024 -45.337197 5.006613 10.243268 -5.164193 
-28.461811 8.631738 86.206932 -101.390911 2.266647 71.440241 20.401340 2.557126 7.403958 -11.103790 -13.543932 36.069015 0.498135 10.481735 -35.149821 nan nan nan -21.421200 -12.281289 9.058441 1.762039 -8.081508 35.865446 1.200682 -9.764362 -28.330673 nan nan nan -6.350171 1.216148 -11.597409 7.934932 -8.004322 19.356423 0.421904 0.087234 -18.509652 4.018360 -39.471046 10.760000 1.105017 -25.196601 18.527584 -24.895228 -10.521985 13.535365 -62.734162 -46.345215 34.184206 170.394700 -69.742120 -149.751410 -9.410778 -23.803805 -5.822873 13.473368 0.900025 3.115355 28.833492 2.303636 -11.092556 -66.197097 43.028405 -45.759438 5.137112 9.982613 -5.359150 
-28.367180 8.622158 86.331001 -101.413445 2.230315 71.783741 20.406342 2.706482 7.203547 -10.995852 -13.434677 35.591681 0.489164 10.232430 -34.814389 nan nan nan -21.256536 -12.312302 8.749677 1.716407 -8.177966 35.525512 1.307910 -9.749084 -28.062819 nan nan nan -6.462879 1.119200 -11.261066 8.043076 -8.098451 19.091674 0.548814 -0.025905 -18.299879 3.994755 -39.167541 10.596660 1.156308 -25.095368 18.645132 -24.712059 -10.313501 13.216509 -63.089695 -46.490385 34.504152 170.344382 -69.882663 -149.634270 -9.402505 -23.671953 -5.591182 13.504574 0.636707 2.769844 28.876819 2.810204 -10.874057 -66.562468 43.275332 -46.214273 5.092456 9.854056 -5.470874 
-28.249519 8.611744 86.467064 -101.427984 2.195679 72.196931 20.394237 2.829880 6.893345 -10.885746 -13.240456 35.148092 0.451369 9.983049 -34.428427 nan nan nan -21.101794 -12.355575 8.374369 1.689526 -8.347809 35.209991 1.366665 -9.698249 -27.780226 nan nan nan -6.634568 1.062391 -11.071797 8.148302 -8.211383 18.979528 0.690170 -0.115125 -18.121379 4.030066 -38.915508 10.423841 1.211850 -25.067813 18.775865 -24.512510 -10.271510 12.958629 -63.424411 -46.650765 34.793683 170.110266 -70.143678 -149.139780 -9.328601 -23.703972 -5.104292 13.617752 0.406289 2.359058 28.853694 3.193570 -10.702343 -67.025526 43.527462 -46.905245 5.056770 9.841928 -5.644677 
-28.122917 8.594373 86.608376 -101.445257 2.148948 72.599002 20.356284 2.928132 6.604943 -10.841374 -13.104861 34.689328 0.409097 9.825014 -34.038339 nan nan nan -20.964558 -12.351729 8.002481 1.707505 -8.505277 34.859962 1.438196 -9.707316 -27.513404 nan nan nan -6.816908 0.981818 -10.821046 8.262165 -8.321908 18.792926 0.818515 -0.178880 -17.874297 4.044799 -38.726091 10.158274 1.146174 -24.962580 19.055782 -24.317957 -10.320717 12.811024 -63.680889 -46.899047 34.926659 169.804623 -70.290771 -148.541732 -9.294334 -23.614738 -4.920069 13.804653 0.226254 1.938758 28.763576 3.485940 -10.655993 -67.611479 43.894535 -47.621664 5.173384 9.689899 -5.620325 
